<svg width="181" height="108" viewBox="0 0 181 108" fill="none" xmlns="http://www.w3.org/2000/svg">
<g clip-path="url(#clip0)">
<path d="M138.578 106.779C136.261 104.825 134.853 101.737 135.222 98.7321C135.591 95.7267 137.878 92.9639 140.843 92.3257C143.809 91.6875 147.189 93.4541 148.09 96.3454C148.586 90.7711 149.157 84.9633 152.127 80.2162C154.816 75.9179 159.473 72.8423 164.52 72.2921C169.567 71.7419 174.881 73.82 178.029 77.7959C181.177 81.7717 181.947 87.5518 179.743 92.1164C178.119 95.479 175.126 97.9815 171.992 100.017C161.861 106.541 149.712 109.193 137.778 107.488L138.578 106.779Z" fill="#17991C"/>
<path d="M173.038 73.9349C168.873 77.3203 165.053 81.1066 161.631 85.2391C156.277 91.6843 151.944 98.9105 148.784 106.666C148.553 107.232 149.473 107.478 149.702 106.919C154.873 94.3142 163.127 83.2049 173.711 74.6067C174.186 74.2204 173.509 73.5518 173.038 73.9349Z" fill="white"/>
<path d="M58.2668 106.248C61.4496 103.563 63.3829 99.3232 62.8759 95.1954C62.3689 91.0676 59.2287 87.2728 55.1554 86.3963C51.0821 85.5197 46.4388 87.9462 45.2016 91.9174C44.5207 84.2611 43.7361 76.284 39.6575 69.7639C35.9644 63.8602 29.568 59.6358 22.6357 58.8801C15.7033 58.1244 8.40448 60.9787 4.08104 66.4395C-0.242394 71.9004 -1.30097 79.8393 1.72705 86.1088C3.95769 90.7273 8.06731 94.1644 12.3732 96.9607C26.1104 105.882 43.1513 109.603 59.366 107.221" fill="#35C63A"/>
<path d="M13.9145 49.6573C19.6345 54.3072 24.882 59.5077 29.5811 65.1837C34.281 70.8538 38.4187 76.9656 41.9362 83.433C43.9023 87.061 45.6685 90.7934 47.2269 94.6135C47.5446 95.3906 46.2803 95.7289 45.966 94.9604C43.2057 88.2256 39.7907 81.7769 35.7699 75.7069C31.7687 69.6589 27.189 64.0125 22.0953 58.8471C19.2143 55.9269 16.1746 53.1671 12.9899 50.5801C12.3372 50.0496 13.2671 49.1312 13.9145 49.6573L13.9145 49.6573Z" fill="white"/>
<path d="M129.925 107.764H53.988V30.0035C53.988 13.4595 67.474 0 84.0506 0H99.8622C116.439 0 129.925 13.4595 129.925 30.0035V107.764Z" fill="#F2F2F2"/>
<path d="M114.113 107.764H53.988V30.0035C53.9714 23.6642 55.9827 17.4851 59.7291 12.3659C59.8672 12.178 60.005 11.9926 60.1471 11.8092C61.9592 9.43714 64.1157 7.34813 66.5453 5.61109C66.6826 5.51143 66.8204 5.41349 66.9602 5.31555C68.9933 3.91139 71.1925 2.76352 73.5079 1.89806C73.6454 1.84605 73.7853 1.79393 73.9253 1.74395C76.0193 0.998131 78.19 0.487251 80.3973 0.220739C80.5341 0.202082 80.6746 0.187484 80.8151 0.172885C82.9661 -0.0566517 85.1355 -0.0566517 87.2865 0.172885C87.4266 0.187484 87.5671 0.202081 87.7055 0.220938C89.9122 0.487468 92.0824 0.998286 94.1758 1.74396C94.3159 1.79394 94.4559 1.84605 94.5938 1.89816C96.8805 2.75271 99.0539 3.88345 101.065 5.26517C101.205 5.36098 101.345 5.45892 101.483 5.55685C102.845 6.52709 104.124 7.60799 105.307 8.78852C106.256 9.73543 107.141 10.7448 107.955 11.8098C108.096 11.9926 108.234 12.178 108.372 12.3656C112.118 17.4849 114.13 23.664 114.113 30.0035V107.764Z" fill="#ADADAD"/>
<path d="M109.224 72.9845C111.063 72.9845 112.553 71.4971 112.553 69.6623C112.553 67.8275 111.063 66.3401 109.224 66.3401C107.386 66.3401 105.895 67.8275 105.895 69.6623C105.895 71.4971 107.386 72.9845 109.224 72.9845Z" fill="#FF63AE"/>
<path d="M123.704 105.434H121.153L119.94 95.6157L123.704 95.6159L123.704 105.434Z" fill="#FFB8B8"/>
<path d="M119.331 104.707H124.25V107.798H116.234C116.234 107.392 116.314 106.99 116.47 106.615C116.626 106.24 116.854 105.9 117.141 105.613C117.429 105.326 117.77 105.098 118.146 104.943C118.522 104.787 118.925 104.707 119.331 104.707Z" fill="#2F2E41"/>
<path d="M136.395 105.434H133.844L132.631 95.6157L136.395 95.6159L136.395 105.434Z" fill="#FFB8B8"/>
<path d="M132.022 104.707H136.941V107.798H128.925C128.925 107.392 129.005 106.99 129.161 106.615C129.316 106.24 129.545 105.9 129.832 105.613C130.12 105.326 130.461 105.098 130.837 104.943C131.213 104.787 131.615 104.707 132.022 104.707Z" fill="#2F2E41"/>
<path d="M110.909 70.3204C110.725 70.0505 110.603 69.7439 110.551 69.4219C110.5 69.0999 110.519 68.7705 110.609 68.4569C110.698 68.1433 110.855 67.853 111.069 67.6066C111.283 67.3602 111.549 67.1637 111.847 67.0308L120.518 43.1802L124.784 45.5039L114.884 68.2964C115.075 68.8115 115.069 69.3784 114.869 69.8897C114.669 70.401 114.287 70.8212 113.797 71.0707C113.307 71.3202 112.743 71.3816 112.21 71.2433C111.678 71.105 111.215 70.7766 110.909 70.3204Z" fill="#FFB8B8"/>
<path d="M135.092 74.8021C134.808 74.6399 134.564 74.4176 134.376 74.151C134.188 73.8843 134.061 73.5798 134.003 73.2587C133.946 72.9377 133.96 72.608 134.044 72.2929C134.128 71.9778 134.28 71.6849 134.49 71.4349L131.804 46.2051L136.659 46.4265L137.776 71.2433C138.173 71.6229 138.417 72.1348 138.462 72.682C138.506 73.2292 138.348 73.7737 138.018 74.2124C137.687 74.6511 137.206 74.9534 136.667 75.0621C136.128 75.1707 135.567 75.0782 135.092 74.8021Z" fill="#FFB8B8"/>
<path d="M127.346 38.7623C130.168 38.7623 132.456 36.479 132.456 33.6625C132.456 30.846 130.168 28.5627 127.346 28.5627C124.524 28.5627 122.236 30.846 122.236 33.6625C122.236 36.479 124.524 38.7623 127.346 38.7623Z" fill="#FFB8B8"/>
<path d="M135.059 69.064H119.654L119.673 68.9443C119.7 68.7655 122.418 50.9964 120.414 45.1832C120.212 44.6119 120.23 43.9866 120.463 43.4275C120.696 42.8685 121.128 42.4153 121.676 42.1551H121.676C124.542 40.8085 130.041 39.1504 134.683 43.1744C135.366 43.7763 135.9 44.5286 136.241 45.3717C136.583 46.2149 136.723 47.1257 136.651 48.0323L135.059 69.064Z" fill="#C0BEDF"/>
<path d="M122.613 53.6223L115.677 52.218L118.928 44.5293C119.123 43.7846 119.605 43.1473 120.27 42.7572C120.935 42.3671 121.727 42.2561 122.474 42.4485C123.221 42.6408 123.86 43.1209 124.253 43.7834C124.645 44.4458 124.758 45.2366 124.567 45.9822L122.613 53.6223Z" fill="#C0BEDF"/>
<path d="M131.496 56.2297L131.079 46.6905C130.762 44.8973 131.791 43.2022 133.373 42.9251C134.955 42.649 136.5 43.8927 136.818 45.6991L138.385 54.6125L131.496 56.2297Z" fill="#C0BEDF"/>
<path d="M134.547 67.9219C137.025 77.3438 137.296 89.3229 136.627 102.39L133.298 101.974L127.265 77.0579L123.936 102.39L120.192 102.182C119.073 88.4718 117.983 76.7017 119.775 68.9601L134.547 67.9219Z" fill="#2F2E41"/>
<path d="M130.713 37.604C129.76 38.6174 127.989 38.0734 127.865 36.6889C127.855 36.5814 127.856 36.4732 127.867 36.3659C127.931 35.7526 128.286 35.1958 128.201 34.5483C128.182 34.3871 128.122 34.2336 128.027 34.1021C127.267 33.0869 125.484 34.5562 124.767 33.6372C124.327 33.0736 124.844 32.1864 124.507 31.5565C124.062 30.7252 122.743 31.1353 121.916 30.68C120.996 30.1735 121.051 28.7646 121.656 27.9075C122.395 26.8624 123.69 26.3047 124.969 26.2243C126.248 26.1439 127.518 26.489 128.712 26.9534C130.069 27.4811 131.414 28.2103 132.249 29.4009C133.265 30.8488 133.362 32.7954 132.855 34.4884C132.546 35.5183 131.491 36.7764 130.713 37.604Z" fill="#2F2E41"/>
<path d="M174.755 107.897H21.1557C21.0901 107.897 21.0273 107.871 20.981 107.825C20.9347 107.778 20.9087 107.716 20.9087 107.65C20.9087 107.585 20.9347 107.522 20.981 107.475C21.0273 107.429 21.0901 107.403 21.1557 107.403H174.755C174.82 107.403 174.883 107.429 174.93 107.475C174.976 107.522 175.002 107.585 175.002 107.65C175.002 107.716 174.976 107.778 174.93 107.825C174.883 107.871 174.82 107.897 174.755 107.897Z" fill="#3F3D56"/>
<path d="M97.5736 85.2348H70.5276C70.1714 85.2368 69.829 85.0976 69.5755 84.8479C69.322 84.5981 69.178 84.2583 69.1753 83.9028V23.6529C69.178 23.2974 69.322 22.9575 69.5755 22.7078C69.829 22.4581 70.1714 22.3189 70.5276 22.3208H97.5736C97.9298 22.3189 98.2722 22.4581 98.5257 22.7078C98.7792 22.9575 98.9231 23.2974 98.9259 23.6529V83.9028C98.9231 84.2583 98.7792 84.5981 98.5257 84.8479C98.2722 85.0976 97.9298 85.2368 97.5736 85.2348Z" fill="white"/>
<path d="M98.9259 41.8159H69.1753V42.2312H98.9259V41.8159Z" fill="#CCCCCC"/>
<path d="M99.0299 65.5095H69.2793V65.9248H99.0299V65.5095Z" fill="#CCCCCC"/>
<path d="M78.9534 22.3208H78.5374V85.4424H78.9534V22.3208Z" fill="#CCCCCC"/>
<path d="M89.3557 22.3208H88.9396V85.4424H89.3557V22.3208Z" fill="#CCCCCC"/>
</g>
<defs>
<clipPath id="clip0">
<rect width="181" height="108" fill="white"/>
</clipPath>
</defs>
</svg>
